<?xml version="1.0" encoding="utf-8"?>
<!DOCTYPE svg PUBLIC "-//W3C//DTD SVG 20010904//EN" "http://www.w3.org/TR/2001/REC-SVG-20010904/DTD/svg10.dtd">
<svg version="1.0" xmlns="http://www.w3.org/2000/svg" width="1002pt" height="1002pt" viewBox="0 0 1002 1002" style="" preserveAspectRatio="xMidYMid meet">
<g fill="#2A2A2AFF">
<path d="M 458.304 40.538 C 357.367 50.546 266.904 90.291 191.981 157.546 C 108.961 232.069 55.761 334.763 42.548 446.000 C 38.810 477.469 38.208 502.612 40.463 533.000 C 43.799 577.947 50.400 610.576 64.740 653.000 C 80.645 700.055 104.486 743.382 142.051 793.500 C 149.431 803.347 190.132 844.140 204.000 855.589 C 264.776 905.766 333.907 939.067 409.262 954.467 C 459.278 964.688 522.208 966.203 572.000 958.386 C 639.855 947.732 702.469 923.243 760.500 884.662 C 796.785 860.539 837.988 822.180 865.385 787.017 C 876.585 772.643 897.000 743.327 897.000 741.619 C 897.000 741.444 899.491 737.169 902.535 732.120 C 909.686 720.257 924.412 689.967 930.790 674.000 C 946.767 633.999 955.813 597.779 961.632 550.500 C 964.129 530.211 964.150 473.444 961.668 452.500 C 954.766 394.267 941.126 346.734 917.475 298.500 C 907.061 277.261 903.279 270.530 891.080 251.526 C 852.688 191.717 800.770 141.341 739.247 104.202 C 716.146 90.257 687.397 76.429 664.000 68.008 C 657.675 65.732 650.764 63.208 648.641 62.399 C 633.268 56.543 592.255 46.749 569.419 43.482 C 537.592 38.928 487.842 37.610 458.304 40.538 M 518.935 135.250 C 550.127 192.672 569.642 228.962 596.053 278.664 C 621.789 327.094 667.358 409.358 669.805 411.805 C 671.555 413.555 674.738 411.981 762.059 366.205 C 811.801 340.129 852.985 318.596 853.578 318.356 C 854.566 317.955 879.696 364.715 878.865 365.408 C 878.511 365.702 807.126 403.048 733.250 441.587 C 713.313 451.988 697.000 460.863 697.000 461.309 C 697.000 462.100 742.509 545.535 756.011 569.500 C 759.730 576.100 766.804 588.925 771.733 598.000 C 776.661 607.075 786.006 624.175 792.498 636.000 C 798.991 647.825 806.871 662.225 810.008 668.000 C 813.146 673.775 818.318 683.225 821.503 689.000 C 833.648 711.023 835.130 713.981 834.515 714.976 C 833.794 716.143 800.804 716.390 786.006 715.340 L 776.705 714.680 757.189 685.090 C 746.455 668.815 735.702 651.522 733.293 646.661 C 730.884 641.800 727.869 636.168 726.593 634.147 C 724.565 630.935 714.143 611.620 692.520 571.000 C 689.153 564.675 679.507 547.125 671.085 532.000 C 662.662 516.875 653.798 500.954 651.386 496.619 C 648.974 492.285 647.000 488.361 647.000 487.901 C 647.000 487.440 646.213 487.350 645.250 487.702 C 642.007 488.887 459.504 584.293 383.341 624.619 C 359.054 637.479 338.752 648.000 338.226 648.000 C 337.700 648.000 336.197 648.827 334.885 649.837 C 333.573 650.848 304.606 665.979 270.512 683.463 L 208.525 715.252 181.895 715.746 C 163.979 716.078 155.055 715.898 154.622 715.197 C 153.975 714.150 157.298 708.211 177.681 674.000 C 190.291 652.834 198.413 639.053 201.257 634.000 C 202.340 632.075 206.481 625.100 210.459 618.500 C 214.437 611.900 220.974 600.875 224.986 594.000 C 228.998 587.125 237.767 572.275 244.473 561.000 C 261.172 532.926 278.031 504.417 304.795 459.000 C 311.115 448.275 318.178 436.350 320.489 432.500 C 322.801 428.650 331.899 413.350 340.707 398.500 C 368.558 351.544 389.076 316.929 397.020 303.500 C 401.249 296.350 411.238 279.475 419.218 266.000 C 427.198 252.525 441.055 229.125 450.011 214.000 C 458.967 198.875 469.765 180.650 474.005 173.500 C 478.246 166.350 487.021 151.500 493.505 140.500 C 506.653 118.194 506.782 118.000 508.405 118.000 C 509.043 118.000 513.781 125.763 518.935 135.250 M 536.364 169.500 C 541.679 179.400 549.283 194.097 553.263 202.161 C 558.342 212.450 555.707 208.126 544.425 187.661 C 530.211 161.873 516.964 136.009 517.019 134.149 C 517.030 133.792 519.213 137.550 521.870 142.500 C 524.528 147.450 531.050 159.600 536.364 169.500 "/></g>
<g fill="#41B839FF">
<path d="M 505.559 121.532 C 504.491 122.339 503.929 123.000 504.309 123.000 C 504.689 123.000 503.988 124.013 502.750 125.250 C 501.068 126.932 500.879 127.509 502.000 127.535 C 502.896 127.557 502.493 128.146 501.000 129.000 C 499.507 129.854 499.104 130.443 500.000 130.465 C 501.121 130.491 500.932 131.068 499.250 132.750 C 498.013 133.988 497.311 135.000 497.691 135.000 C 498.071 135.000 497.509 135.708 496.441 136.574 C 495.374 137.440 495.175 137.816 496.000 137.411 C 496.825 137.005 496.164 137.984 494.530 139.586 C 492.897 141.189 492.212 142.353 493.008 142.174 C 493.805 141.995 493.116 143.109 491.478 144.651 C 489.483 146.528 488.995 147.470 490.000 147.503 C 491.077 147.538 490.936 147.889 489.500 148.746 C 488.400 149.402 487.838 149.953 488.250 149.970 C 488.663 149.986 487.988 151.013 486.750 152.250 C 485.047 153.953 484.865 154.521 486.000 154.586 C 487.130 154.651 487.059 154.866 485.713 155.458 C 483.525 156.419 480.298 162.156 482.168 161.760 C 482.845 161.617 482.297 162.159 480.950 162.965 C 479.409 163.886 479.057 164.451 480.000 164.488 C 481.009 164.527 480.525 165.464 478.522 167.349 C 476.884 168.891 476.172 170.005 476.939 169.826 C 477.767 169.632 477.454 170.413 476.167 171.750 C 474.975 172.988 474.311 174.000 474.691 174.000 C 475.071 174.000 474.509 174.708 473.441 175.574 C 472.374 176.440 472.175 176.816 473.000 176.411 C 473.825 176.005 473.164 176.984 471.530 178.586 C 469.897 180.189 469.212 181.353 470.008 181.174 C 470.805 180.995 470.116 182.109 468.478 183.651 C 466.431 185.577 465.969 186.488 467.000 186.563 C 468.165 186.648 468.110 186.844 466.756 187.441 C 465.796 187.864 465.231 188.565 465.500 189.000 C 465.769 189.435 465.204 190.136 464.244 190.559 C 462.890 191.156 462.835 191.352 464.000 191.437 C 465.035 191.512 464.570 192.442 462.500 194.437 C 460.850 196.026 460.175 196.995 461.000 196.589 C 461.825 196.184 461.626 196.560 460.559 197.426 C 459.491 198.292 458.929 199.000 459.309 199.000 C 459.689 199.000 459.025 200.013 457.833 201.250 C 456.546 202.587 456.233 203.368 457.061 203.174 C 457.828 202.995 457.116 204.109 455.478 205.651 C 453.475 207.536 452.991 208.473 454.000 208.512 C 454.914 208.548 454.523 209.129 453.000 210.000 C 451.507 210.854 451.104 211.443 452.000 211.465 C 453.121 211.491 452.932 212.068 451.250 213.750 C 450.013 214.988 449.338 216.014 449.750 216.030 C 450.163 216.047 449.600 216.598 448.500 217.254 C 447.028 218.133 446.896 218.477 448.000 218.560 C 449.166 218.648 449.111 218.844 447.756 219.441 C 446.796 219.864 446.231 220.565 446.500 221.000 C 446.769 221.435 446.204 222.136 445.244 222.559 C 443.885 223.158 443.831 223.354 445.000 223.449 C 445.984 223.529 445.657 224.075 444.050 225.035 C 442.703 225.841 442.155 226.383 442.832 226.240 C 444.702 225.844 441.475 231.581 439.287 232.542 C 438.001 233.107 437.910 233.351 438.961 233.414 C 439.909 233.470 439.222 234.727 437.000 237.000 C 434.778 239.273 434.091 240.530 435.039 240.586 C 436.116 240.650 436.042 240.875 434.756 241.441 C 433.796 241.864 433.231 242.565 433.500 243.000 C 433.769 243.435 433.204 244.136 432.244 244.559 C 430.899 245.151 430.843 245.347 432.000 245.414 C 433.190 245.482 433.087 245.930 431.500 247.583 C 430.400 248.729 429.363 250.304 429.195 251.083 C 429.027 251.863 428.154 253.063 427.254 253.750 C 426.354 254.438 426.041 255.014 426.559 255.030 C 427.076 255.047 426.600 255.598 425.500 256.254 C 424.056 257.116 423.917 257.465 425.000 257.509 C 425.916 257.547 425.527 258.127 424.000 259.000 C 422.477 259.871 422.086 260.452 423.000 260.488 C 424.009 260.527 423.525 261.464 421.522 263.349 C 419.884 264.891 419.172 266.005 419.939 265.826 C 420.767 265.632 420.454 266.413 419.167 267.750 C 417.975 268.988 417.338 270.014 417.750 270.030 C 418.163 270.047 417.600 270.598 416.500 271.254 C 415.064 272.111 414.923 272.462 416.000 272.497 C 417.010 272.530 416.519 273.491 414.500 275.437 C 412.850 277.026 412.175 277.995 413.000 277.589 C 413.825 277.184 413.626 277.560 412.559 278.426 C 411.491 279.292 410.929 280.000 411.309 280.000 C 411.689 280.000 410.988 281.013 409.750 282.250 C 408.068 283.932 407.879 284.509 409.000 284.535 C 409.896 284.557 409.493 285.146 408.000 286.000 C 406.507 286.854 406.104 287.443 407.000 287.465 C 408.121 287.491 407.932 288.068 406.250 289.750 C 405.013 290.988 404.338 292.014 404.750 292.030 C 405.163 292.047 404.600 292.598 403.500 293.254 C 402.139 294.066 401.967 294.456 402.961 294.474 C 403.881 294.490 403.156 295.795 401.000 298.000 C 398.833 300.216 398.114 301.513 399.039 301.535 C 399.866 301.556 399.416 302.191 398.000 303.000 C 396.403 303.913 396.042 304.473 397.000 304.551 C 398.169 304.646 398.115 304.842 396.756 305.441 C 395.796 305.864 395.260 306.612 395.565 307.105 C 395.869 307.597 395.615 308.000 395.000 308.000 C 394.385 308.000 394.131 308.403 394.435 308.895 C 394.740 309.388 394.204 310.136 393.244 310.559 C 391.867 311.166 391.815 311.364 393.000 311.500 C 394.162 311.634 394.098 311.849 392.713 312.458 C 390.525 313.419 387.298 319.156 389.168 318.760 C 389.845 318.617 389.297 319.159 387.950 319.965 C 386.409 320.886 386.057 321.451 387.000 321.488 C 388.009 321.527 387.525 322.464 385.522 324.349 C 383.884 325.891 383.157 327.005 383.907 326.826 C 384.657 326.647 383.765 328.075 381.925 330.000 C 379.788 332.235 379.107 333.508 380.039 333.523 C 380.976 333.538 380.425 334.582 378.500 336.437 C 376.850 338.026 376.175 338.955 377.000 338.500 C 377.825 338.045 377.150 338.974 375.500 340.563 C 373.430 342.558 372.965 343.488 374.000 343.563 C 375.165 343.648 375.110 343.844 373.756 344.441 C 372.796 344.864 372.231 345.565 372.500 346.000 C 372.769 346.435 372.204 347.136 371.244 347.559 C 369.890 348.156 369.835 348.352 371.000 348.437 C 372.035 348.512 371.570 349.442 369.500 351.437 C 367.850 353.026 367.175 353.955 368.000 353.500 C 368.825 353.045 368.150 353.974 366.500 355.563 C 364.481 357.509 363.990 358.470 365.000 358.503 C 366.077 358.538 365.936 358.889 364.500 359.746 C 363.400 360.402 362.838 360.953 363.250 360.970 C 363.663 360.986 362.988 362.013 361.750 363.250 C 360.068 364.932 359.879 365.509 361.000 365.535 C 361.896 365.557 361.493 366.146 360.000 367.000 C 358.507 367.854 358.104 368.443 359.000 368.465 C 360.121 368.491 359.932 369.068 358.250 370.750 C 357.013 371.988 356.338 373.014 356.750 373.030 C 357.163 373.047 356.600 373.598 355.500 374.254 C 354.064 375.111 353.923 375.462 355.000 375.497 C 356.005 375.530 355.517 376.472 353.522 378.349 C 351.884 379.891 351.172 381.005 351.939 380.826 C 352.767 380.632 352.454 381.413 351.167 382.750 C 349.975 383.988 349.338 385.014 349.750 385.030 C 350.163 385.047 349.600 385.598 348.500 386.254 C 347.064 387.111 346.923 387.462 348.000 387.497 C 349.010 387.530 348.519 388.491 346.500 390.437 C 344.850 392.026 344.175 392.955 345.000 392.500 C 345.825 392.045 345.150 392.974 343.500 394.563 C 341.483 396.507 340.992 397.469 342.000 397.500 C 343.008 397.531 342.517 398.493 340.500 400.437 C 338.850 402.026 338.107 402.974 338.850 402.543 C 339.977 401.888 339.982 402.150 338.885 404.129 C 338.057 405.624 337.545 405.946 337.500 405.000 C 337.454 404.022 336.991 404.289 336.172 405.764 C 335.153 407.599 335.159 407.980 336.207 407.771 C 336.918 407.629 336.696 407.902 335.713 408.378 C 333.494 409.451 330.330 415.149 332.168 414.760 C 332.845 414.617 332.297 415.159 330.950 415.965 C 329.409 416.886 329.057 417.451 330.000 417.488 C 331.014 417.527 330.528 418.483 328.500 420.437 C 326.850 422.026 326.100 422.979 326.833 422.554 C 327.835 421.971 327.783 422.520 326.620 424.769 C 325.769 426.413 324.270 428.147 323.287 428.622 C 322.304 429.098 322.082 429.371 322.793 429.229 C 323.841 429.020 323.847 429.401 322.828 431.236 C 322.009 432.711 321.546 432.978 321.500 432.000 C 321.455 431.054 320.943 431.376 320.115 432.871 C 319.018 434.850 319.023 435.112 320.150 434.457 C 320.893 434.026 320.150 434.974 318.500 436.563 C 316.575 438.418 316.024 439.462 316.961 439.477 C 317.880 439.491 317.152 440.798 315.000 443.000 C 312.778 445.273 312.091 446.530 313.039 446.586 C 314.116 446.650 314.042 446.875 312.756 447.441 C 311.796 447.864 311.231 448.565 311.500 449.000 C 311.769 449.435 311.204 450.136 310.244 450.559 C 308.867 451.166 308.815 451.364 310.000 451.500 C 311.185 451.636 311.133 451.834 309.756 452.441 C 308.796 452.864 308.231 453.565 308.500 454.000 C 308.769 454.435 308.204 455.172 307.244 455.639 C 306.246 456.124 306.132 456.350 306.978 456.167 C 307.791 455.992 307.116 457.109 305.478 458.651 C 303.483 460.528 302.995 461.470 304.000 461.503 C 305.077 461.538 304.936 461.889 303.500 462.746 C 302.400 463.402 301.838 463.953 302.250 463.970 C 302.663 463.986 301.988 465.013 300.750 466.250 C 299.068 467.932 298.879 468.509 300.000 468.535 C 300.896 468.557 300.493 469.146 299.000 470.000 C 297.584 470.809 297.134 471.444 297.961 471.465 C 298.886 471.487 298.167 472.784 296.000 475.000 C 293.778 477.273 293.091 478.530 294.039 478.586 C 295.116 478.650 295.042 478.875 293.756 479.441 C 292.796 479.864 292.231 480.565 292.500 481.000 C 292.769 481.435 292.204 482.136 291.244 482.559 C 289.890 483.156 289.835 483.352 291.000 483.437 C 292.035 483.512 291.570 484.442 289.500 486.437 C 287.850 488.026 287.100 488.979 287.833 488.554 C 288.835 487.971 288.783 488.520 287.620 490.769 C 286.769 492.413 285.270 494.147 284.287 494.622 C 283.304 495.098 283.165 495.343 283.978 495.167 C 284.791 494.992 284.116 496.109 282.478 497.651 C 280.431 499.577 279.969 500.488 281.000 500.563 C 282.165 500.648 282.110 500.844 280.756 501.441 C 279.796 501.864 279.231 502.565 279.500 503.000 C 279.769 503.435 279.204 504.136 278.244 504.559 C 276.889 505.156 276.834 505.352 278.000 505.440 C 279.104 505.523 278.972 505.867 277.500 506.746 C 276.400 507.402 275.838 507.953 276.250 507.970 C 276.663 507.986 276.025 509.013 274.833 510.250 C 273.546 511.587 273.233 512.368 274.061 512.174 C 274.828 511.995 274.116 513.109 272.478 514.651 C 270.431 516.577 269.969 517.488 271.000 517.563 C 272.165 517.648 272.110 517.844 270.756 518.441 C 269.796 518.864 269.231 519.565 269.500 520.000 C 269.769 520.435 269.204 521.136 268.244 521.559 C 266.867 522.166 266.815 522.364 268.000 522.500 C 269.162 522.634 269.098 522.849 267.713 523.458 C 266.730 523.889 265.231 525.587 264.380 527.231 C 263.217 529.480 263.165 530.029 264.167 529.446 C 264.900 529.021 264.150 529.974 262.500 531.563 C 260.472 533.517 259.986 534.473 261.000 534.512 C 261.914 534.548 261.523 535.129 260.000 536.000 C 258.507 536.854 258.104 537.443 259.000 537.465 C 260.121 537.491 259.932 538.068 258.250 539.750 C 257.013 540.988 256.338 542.014 256.750 542.030 C 257.163 542.047 256.600 542.598 255.500 543.254 C 254.064 544.111 253.923 544.462 255.000 544.497 C 256.010 544.530 255.519 545.491 253.500 547.437 C 251.850 549.026 251.175 549.955 252.000 549.500 C 252.825 549.045 252.150 549.974 250.500 551.563 C 248.575 553.418 248.024 554.462 248.961 554.477 C 249.880 554.491 249.152 555.798 247.000 558.000 C 244.833 560.216 244.114 561.513 245.039 561.535 C 245.866 561.556 245.416 562.191 244.000 563.000 C 242.584 563.809 242.134 564.444 242.961 564.465 C 243.899 564.487 243.225 565.751 241.075 568.000 C 239.235 569.925 238.260 571.381 238.907 571.236 C 239.779 571.040 239.758 571.561 238.828 573.236 C 238.009 574.711 237.546 574.978 237.500 574.000 C 237.454 573.022 236.991 573.289 236.172 574.764 C 235.153 576.599 235.159 576.980 236.207 576.771 C 236.918 576.629 236.696 576.902 235.713 577.378 C 234.730 577.853 233.231 579.587 232.380 581.231 C 231.217 583.480 231.165 584.029 232.167 583.446 C 232.900 583.021 232.150 583.974 230.500 585.563 C 228.472 587.517 227.986 588.473 229.000 588.512 C 229.914 588.548 229.523 589.129 228.000 590.000 C 226.507 590.854 226.104 591.443 227.000 591.465 C 228.121 591.491 227.932 592.068 226.250 593.750 C 225.013 594.988 224.338 596.014 224.750 596.030 C 225.163 596.047 224.600 596.598 223.500 597.254 C 222.064 598.111 221.923 598.462 223.000 598.497 C 224.005 598.530 223.517 599.472 221.522 601.349 C 219.884 602.891 219.209 604.008 220.022 603.833 C 220.959 603.630 220.883 603.815 219.813 604.339 C 218.885 604.794 218.358 605.769 218.641 606.506 C 218.924 607.243 218.130 608.444 216.878 609.173 C 215.626 609.903 215.243 610.353 216.029 610.174 C 216.814 609.995 216.116 611.109 214.478 612.651 C 212.475 614.536 211.991 615.473 213.000 615.512 C 213.914 615.548 213.523 616.129 212.000 617.000 C 210.507 617.854 210.104 618.443 211.000 618.465 C 212.121 618.491 211.932 619.068 210.250 620.750 C 209.013 621.988 208.311 623.000 208.691 623.000 C 209.071 623.000 208.509 623.708 207.441 624.574 C 206.374 625.440 206.107 625.836 206.850 625.453 C 207.976 624.874 207.982 625.151 206.885 627.129 C 206.057 628.624 205.545 628.946 205.500 628.000 C 205.454 627.022 204.991 627.289 204.172 628.764 C 203.176 630.557 203.173 630.974 204.157 630.764 C 204.840 630.619 204.374 631.097 203.122 631.827 C 201.870 632.556 201.076 633.757 201.359 634.494 C 201.642 635.231 201.115 636.206 200.187 636.661 C 199.117 637.185 199.041 637.370 199.978 637.167 C 200.791 636.992 200.116 638.109 198.478 639.651 C 196.431 641.577 195.969 642.488 197.000 642.563 C 198.165 642.648 198.110 642.844 196.756 643.441 C 195.796 643.864 195.250 644.596 195.542 645.068 C 195.834 645.541 195.157 646.843 194.036 647.964 C 192.916 649.084 192.338 650.014 192.750 650.030 C 193.163 650.047 192.600 650.598 191.500 651.254 C 190.078 652.103 189.933 652.455 191.000 652.474 C 192.119 652.493 191.928 653.072 190.250 654.750 C 189.013 655.988 188.338 657.014 188.750 657.030 C 189.163 657.047 188.600 657.598 187.500 658.254 C 186.064 659.111 185.923 659.462 187.000 659.497 C 188.005 659.530 187.517 660.472 185.522 662.349 C 183.884 663.891 183.209 665.008 184.022 664.833 C 184.868 664.650 184.754 664.876 183.756 665.361 C 182.796 665.828 182.231 666.565 182.500 667.000 C 182.769 667.435 182.204 668.136 181.244 668.559 C 179.889 669.156 179.834 669.352 181.000 669.440 C 182.104 669.523 181.972 669.867 180.500 670.746 C 179.400 671.402 178.838 671.953 179.250 671.970 C 179.663 671.986 178.988 673.013 177.750 674.250 C 176.068 675.932 175.879 676.509 177.000 676.535 C 177.896 676.557 177.493 677.146 176.000 678.000 C 174.584 678.809 174.134 679.444 174.961 679.465 C 175.886 679.487 175.167 680.784 173.000 683.000 C 170.848 685.202 170.120 686.509 171.039 686.523 C 171.976 686.538 171.425 687.582 169.500 689.437 C 167.850 691.026 167.175 691.955 168.000 691.500 C 168.825 691.045 168.150 691.974 166.500 693.563 C 164.481 695.509 163.990 696.470 165.000 696.503 C 166.077 696.538 165.936 696.889 164.500 697.746 C 163.400 698.402 162.838 698.953 163.250 698.970 C 163.663 698.986 162.988 700.013 161.750 701.250 C 160.068 702.932 159.879 703.509 161.000 703.535 C 161.896 703.557 161.493 704.146 160.000 705.000 C 158.625 705.786 158.046 706.445 158.714 706.465 C 159.546 706.489 159.629 706.971 158.979 708.000 C 158.457 708.825 158.010 709.050 157.985 708.500 C 157.960 707.950 157.446 708.349 156.843 709.387 C 155.966 710.897 156.023 711.129 157.124 710.550 C 157.881 710.152 157.423 710.704 156.106 711.776 C 151.553 715.484 153.953 716.013 174.309 715.785 L 193.500 715.570 175.500 715.000 L 157.500 714.430 181.667 714.215 C 198.770 714.063 205.942 714.327 206.206 715.119 C 206.596 716.288 221.213 709.510 221.835 707.871 C 222.020 707.385 222.582 707.242 223.085 707.553 C 223.588 707.864 224.000 707.615 224.000 707.000 C 224.000 706.385 224.450 706.160 225.000 706.500 C 225.550 706.840 226.000 706.716 226.000 706.224 C 226.000 705.732 233.875 701.582 243.500 697.000 C 253.125 692.418 261.000 688.268 261.000 687.776 C 261.000 687.284 261.450 687.160 262.000 687.500 C 262.550 687.840 263.000 687.615 263.000 687.000 C 263.000 686.385 263.450 686.160 264.000 686.500 C 264.550 686.840 265.000 686.714 265.000 686.221 C 265.000 685.728 271.975 682.028 280.500 678.000 C 289.025 673.972 296.000 670.272 296.000 669.779 C 296.000 669.286 296.450 669.160 297.000 669.500 C 297.550 669.840 298.000 669.615 298.000 669.000 C 298.000 668.385 298.450 668.160 299.000 668.500 C 299.550 668.840 300.000 668.615 300.000 668.000 C 300.000 667.385 300.450 667.160 301.000 667.500 C 301.550 667.840 302.000 667.615 302.000 667.000 C 302.000 666.385 302.450 666.160 303.000 666.500 C 303.550 666.840 304.000 666.735 304.000 666.267 C 304.000 665.798 307.825 663.693 312.500 661.587 C 317.175 659.482 321.000 657.337 321.000 656.820 C 321.000 656.304 321.450 656.160 322.000 656.500 C 322.550 656.840 323.000 656.615 323.000 656.000 C 323.000 655.385 323.450 655.160 324.000 655.500 C 324.550 655.840 325.000 655.615 325.000 655.000 C 325.000 654.385 325.450 654.160 326.000 654.500 C 326.550 654.840 327.000 654.615 327.000 654.000 C 327.000 653.385 327.450 653.160 328.000 653.500 C 328.550 653.840 329.000 653.615 329.000 653.000 C 329.000 652.385 329.450 652.160 330.000 652.500 C 330.550 652.840 331.000 652.615 331.000 652.000 C 331.000 651.385 331.450 651.160 332.000 651.500 C 332.550 651.840 333.000 651.738 333.000 651.275 C 333.000 650.073 338.591 646.924 339.360 647.693 C 339.712 648.045 340.000 647.782 340.000 647.108 C 340.000 646.434 340.450 646.160 341.000 646.500 C 341.550 646.840 342.000 646.615 342.000 646.000 C 342.000 645.385 342.450 645.160 343.000 645.500 C 343.550 645.840 344.000 645.615 344.000 645.000 C 344.000 644.385 344.450 644.160 345.000 644.500 C 345.550 644.840 346.000 644.615 346.000 644.000 C 346.000 643.385 346.450 643.160 347.000 643.500 C 347.550 643.840 348.000 643.615 348.000 643.000 C 348.000 642.385 348.450 642.160 349.000 642.500 C 349.550 642.840 350.000 642.732 350.000 642.260 C 350.000 641.788 351.575 640.832 353.500 640.136 C 355.425 639.440 357.000 638.423 357.000 637.876 C 357.000 637.329 357.450 637.160 358.000 637.500 C 358.550 637.840 359.000 637.615 359.000 637.000 C 359.000 636.385 359.450 636.160 360.000 636.500 C 360.550 636.840 361.000 636.615 361.000 636.000 C 361.000 635.385 361.450 635.160 362.000 635.500 C 362.550 635.840 363.000 635.615 363.000 635.000 C 363.000 634.385 363.450 634.160 364.000 634.500 C 364.550 634.840 365.000 634.615 365.000 634.000 C 365.000 633.385 365.450 633.160 366.000 633.500 C 366.550 633.840 367.000 633.676 367.000 633.137 C 367.000 632.597 368.575 631.635 370.500 631.000 C 372.425 630.365 374.000 629.403 374.000 628.863 C 374.000 628.324 374.450 628.160 375.000 628.500 C 375.550 628.840 376.000 628.615 376.000 628.000 C 376.000 627.385 376.450 627.160 377.000 627.500 C 377.550 627.840 378.000 627.615 378.000 627.000 C 378.000 626.385 378.450 626.160 379.000 626.500 C 379.550 626.840 380.000 626.615 380.000 626.000 C 380.000 625.385 380.450 625.160 381.000 625.500 C 381.550 625.840 382.000 625.709 382.000 625.209 C 382.000 624.709 384.925 623.057 388.500 621.538 C 392.075 620.018 395.000 618.349 395.000 617.828 C 395.000 617.308 395.450 617.160 396.000 617.500 C 396.550 617.840 397.000 617.615 397.000 617.000 C 397.000 616.385 397.450 616.160 398.000 616.500 C 398.550 616.840 399.000 616.615 399.000 616.000 C 399.000 615.385 399.450 615.160 400.000 615.500 C 400.550 615.840 401.000 615.723 401.000 615.240 C 401.000 614.757 404.375 612.878 408.500 611.065 C 412.625 609.253 416.000 607.345 416.000 606.826 C 416.000 606.307 416.450 606.160 417.000 606.500 C 417.550 606.840 418.000 606.707 418.000 606.205 C 418.000 605.703 422.275 603.361 427.500 601.000 C 432.725 598.639 437.000 596.389 437.000 596.000 C 437.000 595.611 441.336 593.333 446.636 590.938 C 451.936 588.544 456.842 586.015 457.538 585.319 C 458.234 584.623 463.461 581.762 469.152 578.961 C 474.843 576.161 484.450 571.248 490.500 568.045 C 496.550 564.841 506.000 559.892 511.500 557.047 C 517.000 554.202 526.900 549.012 533.500 545.513 C 540.100 542.014 550.000 536.833 555.500 533.999 C 561.000 531.165 570.900 525.999 577.500 522.518 C 584.100 519.038 594.214 513.872 599.976 511.038 C 605.738 508.204 610.699 505.487 611.000 505.000 C 611.301 504.513 616.476 501.813 622.500 499.000 C 628.524 496.187 633.688 493.522 633.976 493.077 C 634.720 491.929 641.991 488.406 645.219 487.631 C 647.551 487.070 648.166 487.421 649.551 490.099 C 650.464 491.864 650.659 492.907 650.000 492.500 C 649.359 492.104 649.659 493.276 650.667 495.104 C 652.134 497.764 652.400 497.943 652.000 496.000 C 651.591 494.013 651.825 494.162 653.291 496.815 C 654.276 498.599 654.769 500.565 654.386 501.184 C 653.930 501.922 654.147 502.027 655.015 501.490 C 655.985 500.891 656.164 501.132 655.681 502.388 C 655.249 503.516 655.406 503.867 656.141 503.413 C 656.819 502.994 657.065 503.269 656.767 504.111 C 656.496 504.875 657.000 506.805 657.887 508.399 L 659.500 511.299 658.500 507.994 C 657.609 505.051 657.754 505.155 659.820 508.942 C 661.096 511.280 661.846 513.488 661.486 513.847 C 661.127 514.206 661.396 514.500 662.083 514.500 C 662.771 514.500 663.542 515.125 663.796 515.889 C 664.096 516.788 663.826 517.010 663.030 516.519 C 662.116 515.954 662.138 516.367 663.115 518.129 C 663.943 519.624 664.455 519.946 664.500 519.000 C 664.546 518.024 665.012 518.294 665.832 519.771 C 666.525 521.020 666.777 522.552 666.392 523.175 C 665.930 523.922 666.143 524.030 667.015 523.490 C 667.985 522.891 668.164 523.132 667.681 524.388 C 667.238 525.544 667.401 525.870 668.181 525.388 C 668.941 524.919 669.133 525.212 668.739 526.238 C 668.408 527.100 668.444 528.111 668.819 528.486 C 669.194 528.860 669.520 528.567 669.545 527.833 C 669.570 527.100 670.616 528.460 671.869 530.855 C 673.188 533.376 673.590 534.886 672.824 534.441 C 672.096 534.019 672.779 534.889 674.342 536.374 C 676.043 537.990 676.951 539.684 676.604 540.590 C 676.227 541.571 676.431 541.852 677.181 541.388 C 677.941 540.919 678.133 541.212 677.739 542.238 C 677.408 543.100 677.444 544.111 677.819 544.486 C 678.194 544.860 678.507 544.567 678.515 543.833 C 678.528 542.736 678.678 542.733 679.365 543.817 C 679.825 544.541 679.968 545.366 679.683 545.650 C 679.399 545.934 680.142 547.142 681.333 548.333 C 682.963 549.963 683.128 550.500 682.000 550.500 C 680.872 550.500 681.037 551.037 682.667 552.667 C 683.858 553.858 684.571 555.096 684.250 555.417 C 683.929 555.738 684.218 556.000 684.892 556.000 C 685.566 556.000 685.840 556.450 685.500 557.000 C 685.160 557.550 685.385 558.000 686.000 558.000 C 686.615 558.000 686.869 558.403 686.565 558.895 C 686.260 559.388 686.796 560.136 687.756 560.559 C 689.133 561.166 689.185 561.364 688.000 561.500 C 686.815 561.636 686.867 561.834 688.244 562.441 C 689.204 562.864 689.740 563.612 689.435 564.105 C 689.131 564.597 689.385 565.000 690.000 565.000 C 690.615 565.000 690.869 565.403 690.565 565.895 C 690.260 566.388 690.796 567.172 691.756 567.639 C 692.715 568.105 692.931 568.375 692.235 568.238 C 691.502 568.094 692.461 570.951 694.517 575.034 C 696.733 579.434 698.486 581.818 699.187 581.385 C 699.845 580.978 700.032 581.140 699.638 581.776 C 699.033 582.756 720.716 624.837 726.759 634.411 C 728.127 636.577 730.765 641.520 732.623 645.396 C 734.480 649.272 736.000 651.778 736.000 650.965 C 736.000 650.151 732.806 643.639 728.901 636.493 C 719.404 619.110 712.551 605.723 712.523 604.500 C 712.510 603.950 713.738 605.694 715.250 608.376 C 716.763 611.058 718.000 613.404 718.000 613.591 C 718.000 614.438 729.222 632.322 730.852 634.071 C 734.334 637.809 738.515 649.801 737.477 653.073 C 737.120 654.197 737.335 655.000 737.992 655.000 C 738.611 655.000 738.838 655.453 738.496 656.007 C 738.153 656.561 738.574 657.283 739.431 657.612 C 740.288 657.941 740.740 658.612 740.435 659.105 C 740.131 659.597 740.359 660.000 740.941 660.000 C 741.523 660.000 742.000 660.675 742.000 661.500 C 742.000 662.325 742.450 663.000 743.000 663.000 C 743.550 663.000 744.000 663.675 744.000 664.500 C 744.000 665.325 744.450 666.000 745.000 666.000 C 745.550 666.000 746.000 666.675 746.000 667.500 C 746.000 668.325 746.450 669.000 747.000 669.000 C 747.550 669.000 748.000 669.675 748.000 670.500 C 748.000 671.325 748.450 672.000 749.000 672.000 C 749.550 672.000 750.000 672.675 750.000 673.500 C 750.000 674.325 750.450 675.000 751.000 675.000 C 751.550 675.000 752.000 675.469 752.000 676.042 C 752.000 676.615 752.884 678.033 753.965 679.193 C 755.046 680.354 755.724 681.638 755.471 682.047 C 755.218 682.456 755.712 683.059 756.569 683.388 C 757.426 683.717 757.847 684.439 757.504 684.993 C 757.162 685.547 757.359 686.000 757.941 686.000 C 758.523 686.000 759.000 686.675 759.000 687.500 C 759.000 688.325 759.450 689.000 760.000 689.000 C 760.550 689.000 761.000 689.675 761.000 690.500 C 761.000 691.325 761.450 692.000 762.000 692.000 C 762.550 692.000 763.000 692.675 763.000 693.500 C 763.000 694.325 763.450 695.000 764.000 695.000 C 764.550 695.000 765.000 695.675 765.000 696.500 C 765.000 697.325 765.436 698.000 765.969 698.000 C 767.031 698.000 766.139 694.835 764.826 693.943 C 764.123 693.465 759.766 678.604 760.306 678.527 C 760.413 678.512 761.506 677.938 762.736 677.250 C 763.966 676.563 765.766 675.990 766.736 675.978 C 768.177 675.960 768.042 675.598 766.000 674.001 C 764.625 672.926 762.600 672.106 761.500 672.179 C 756.199 672.529 755.760 672.149 758.409 669.500 C 759.784 668.125 761.417 667.000 762.038 667.000 C 762.659 667.000 762.967 666.438 762.723 665.750 C 762.479 665.063 761.317 664.607 760.140 664.738 C 758.663 664.903 758.000 664.423 758.000 663.189 C 758.000 661.735 758.653 661.478 761.500 661.810 C 764.820 662.198 765.000 662.416 765.000 666.050 C 765.000 668.158 765.526 670.207 766.170 670.605 C 766.968 671.098 767.127 670.773 766.670 669.582 C 766.301 668.622 766.000 665.372 766.000 662.359 C 766.000 659.155 765.606 657.126 765.050 657.469 C 763.947 658.151 762.000 654.923 762.000 652.411 C 762.000 650.789 762.111 650.790 763.920 652.428 C 765.751 654.084 765.891 654.072 766.917 652.155 C 767.509 651.050 767.745 649.498 767.442 648.708 C 767.061 647.718 767.827 647.085 769.908 646.668 C 772.554 646.139 773.123 645.385 774.534 640.532 C 775.888 635.873 776.508 635.000 778.464 635.000 C 781.045 635.000 782.407 637.193 780.815 638.785 C 780.110 639.490 780.607 640.351 782.393 641.522 C 785.356 643.463 786.175 649.000 783.500 649.000 C 782.675 649.000 782.000 649.450 782.000 650.000 C 782.000 651.249 784.713 651.327 785.167 650.092 C 785.350 649.592 786.357 649.029 787.405 648.842 C 788.797 648.592 790.103 649.845 792.261 653.500 C 793.884 656.250 795.840 658.860 796.606 659.300 C 797.373 659.740 798.000 660.752 798.000 661.550 C 798.000 662.347 798.388 663.000 798.863 663.000 C 799.338 663.000 800.493 665.439 801.431 668.419 C 802.368 671.399 803.772 674.082 804.551 674.381 C 805.329 674.680 805.733 675.532 805.448 676.275 C 805.163 677.018 805.845 678.455 806.965 679.468 C 808.084 680.481 809.000 682.265 809.000 683.432 C 809.000 684.600 809.701 686.556 810.558 687.779 C 811.415 689.003 811.852 690.430 811.530 690.952 C 811.208 691.473 811.899 692.411 813.066 693.035 C 814.418 693.759 815.016 694.833 814.712 695.992 C 814.424 697.093 815.380 699.065 817.131 700.982 C 820.335 704.491 820.030 706.430 816.383 705.733 C 815.072 705.482 814.000 705.665 814.000 706.139 C 814.000 707.629 810.965 707.073 810.350 705.470 C 809.964 704.463 809.078 704.158 807.757 704.577 C 806.550 704.960 805.401 704.673 804.875 703.857 C 804.319 702.995 803.726 702.865 803.250 703.500 C 801.097 706.371 795.000 708.060 795.000 705.786 C 795.000 705.024 794.366 705.205 793.300 706.272 C 791.699 707.872 791.469 707.849 789.374 705.881 C 787.014 703.665 784.705 704.068 785.651 706.532 C 786.473 708.674 784.260 708.326 782.268 706.000 C 780.579 704.027 777.000 703.226 777.000 704.820 C 777.000 705.271 778.367 707.171 780.039 709.043 C 782.777 712.111 782.901 712.519 781.289 713.177 C 780.305 713.578 791.311 713.815 805.746 713.703 C 820.181 713.592 831.993 713.118 831.996 712.651 C 831.998 712.184 829.750 707.980 827.000 703.307 C 824.250 698.635 822.000 694.673 822.000 694.502 C 822.000 694.332 820.382 691.336 818.406 687.846 C 816.429 684.356 812.758 677.675 810.249 673.000 C 807.739 668.325 804.857 663.306 803.843 661.846 C 802.829 660.386 802.000 658.998 802.000 658.762 C 802.000 658.390 794.919 645.178 781.680 620.849 C 779.689 617.191 773.058 604.816 766.944 593.349 C 760.830 581.882 755.374 571.953 754.819 571.284 C 754.265 570.615 754.017 569.490 754.268 568.784 C 754.520 568.078 754.000 566.195 753.113 564.601 L 751.500 561.701 752.500 565.006 C 753.391 567.949 753.246 567.845 751.180 564.058 C 749.904 561.720 749.154 559.512 749.514 559.153 C 749.873 558.794 749.604 558.500 748.917 558.500 C 748.229 558.500 747.458 557.875 747.204 557.111 C 746.908 556.225 747.177 555.991 747.944 556.465 C 748.606 556.874 748.102 555.292 746.824 552.949 C 744.751 549.150 744.608 549.047 745.500 552.000 C 746.392 554.953 746.249 554.850 744.176 551.051 C 742.898 548.708 742.369 547.110 743.000 547.500 C 743.631 547.890 743.122 546.250 741.869 543.855 C 740.616 541.460 739.550 540.175 739.500 541.000 C 739.450 541.825 738.384 540.540 737.131 538.145 C 735.878 535.750 735.373 534.112 736.009 534.506 C 736.645 534.899 736.341 533.724 735.333 531.896 C 733.852 529.211 733.596 529.041 734.000 531.013 C 734.275 532.355 733.253 531.098 731.730 528.220 C 730.116 525.171 729.477 523.094 730.199 523.243 C 730.881 523.384 730.280 522.375 728.863 521.000 C 725.678 517.909 722.417 511.866 724.136 512.240 C 724.794 512.383 724.396 511.525 723.250 510.333 C 722.104 509.142 721.429 507.904 721.750 507.583 C 722.071 507.263 721.782 507.000 721.108 507.000 C 720.434 507.000 720.131 506.597 720.435 506.105 C 720.740 505.612 720.204 504.828 719.244 504.361 C 718.285 503.895 718.076 503.627 718.781 503.767 C 719.741 503.957 719.672 503.266 718.505 501.010 C 717.649 499.355 716.484 498.000 715.915 498.000 C 715.347 498.000 715.131 497.597 715.435 497.105 C 715.740 496.612 715.269 495.934 714.391 495.596 C 713.466 495.242 713.038 494.344 713.374 493.469 C 713.693 492.636 713.102 491.102 712.061 490.061 C 711.019 489.019 710.429 487.904 710.750 487.583 C 711.071 487.263 710.782 487.000 710.108 487.000 C 709.434 487.000 709.160 486.550 709.500 486.000 C 709.840 485.450 709.615 485.000 709.000 485.000 C 708.385 485.000 708.131 484.597 708.435 484.105 C 708.740 483.612 708.324 482.954 707.511 482.643 C 706.676 482.322 706.289 481.411 706.621 480.546 C 706.963 479.654 706.542 478.761 705.609 478.404 C 704.731 478.066 704.260 477.388 704.565 476.895 C 704.869 476.403 704.615 476.000 704.000 476.000 C 703.385 476.000 703.160 475.550 703.500 475.000 C 703.840 474.450 703.615 474.000 703.000 474.000 C 702.385 474.000 702.160 473.550 702.500 473.000 C 702.840 472.450 702.615 472.000 702.000 472.000 C 701.385 472.000 701.150 471.566 701.477 471.036 C 701.805 470.507 701.194 469.194 700.120 468.120 C 699.046 467.046 698.429 465.904 698.750 465.583 C 699.071 465.263 698.782 465.000 698.108 465.000 C 697.434 465.000 697.160 464.550 697.500 464.000 C 697.840 463.450 697.656 463.000 697.090 463.000 C 694.844 463.000 697.343 460.149 701.059 458.473 C 703.227 457.496 705.000 456.288 705.000 455.789 C 705.000 455.290 705.450 455.160 706.000 455.500 C 706.550 455.840 707.000 455.732 707.000 455.259 C 707.000 454.787 711.725 452.227 717.500 449.571 C 723.275 446.914 728.000 444.322 728.000 443.811 C 728.000 443.300 728.450 443.160 729.000 443.500 C 729.550 443.840 730.000 443.723 730.000 443.239 C 730.000 442.756 734.275 440.422 739.500 438.052 C 744.725 435.682 749.000 433.325 749.000 432.813 C 749.000 432.301 749.450 432.160 750.000 432.500 C 750.550 432.840 751.000 432.615 751.000 432.000 C 751.000 431.385 751.450 431.160 752.000 431.500 C 752.550 431.840 753.000 431.723 753.000 431.239 C 753.000 430.756 757.275 428.422 762.500 426.052 C 767.725 423.682 772.000 421.325 772.000 420.813 C 772.000 420.301 772.450 420.160 773.000 420.500 C 773.550 420.840 774.000 420.615 774.000 420.000 C 774.000 419.385 774.450 419.160 775.000 419.500 C 775.550 419.840 776.000 419.615 776.000 419.000 C 776.000 418.385 776.450 418.160 777.000 418.500 C 777.550 418.840 778.000 418.735 778.000 418.267 C 778.000 417.798 781.825 415.693 786.500 413.587 C 791.175 411.482 795.000 409.337 795.000 408.820 C 795.000 408.304 795.450 408.160 796.000 408.500 C 796.550 408.840 797.000 408.615 797.000 408.000 C 797.000 407.385 797.450 407.160 798.000 407.500 C 798.550 407.840 799.000 407.713 799.000 407.217 C 799.000 406.722 802.825 404.612 807.500 402.529 C 812.175 400.446 816.000 398.323 816.000 397.812 C 816.000 397.300 816.450 397.160 817.000 397.500 C 817.550 397.840 818.000 397.615 818.000 397.000 C 818.000 396.385 818.450 396.160 819.000 396.500 C 819.550 396.840 820.000 396.707 820.000 396.205 C 820.000 395.703 824.275 393.361 829.500 391.000 C 834.725 388.639 839.000 386.297 839.000 385.795 C 839.000 385.293 839.450 385.160 840.000 385.500 C 840.550 385.840 841.000 385.707 841.000 385.205 C 841.000 384.703 845.275 382.361 850.500 380.000 C 855.725 377.639 860.000 375.297 860.000 374.795 C 860.000 374.293 860.450 374.160 861.000 374.500 C 861.550 374.840 862.000 374.615 862.000 374.000 C 862.000 373.385 862.450 373.160 863.000 373.500 C 863.550 373.840 864.000 373.693 864.000 373.174 C 864.000 372.655 867.322 370.771 871.382 368.986 L 878.764 365.742 874.308 356.121 C 871.857 350.829 869.432 346.349 868.920 346.165 C 868.407 345.980 868.242 345.418 868.553 344.915 C 868.864 344.412 868.707 344.000 868.205 344.000 C 867.703 344.000 865.361 339.725 863.000 334.500 C 860.639 329.275 858.297 325.000 857.795 325.000 C 857.293 325.000 857.160 324.550 857.500 324.000 C 857.840 323.450 857.714 323.000 857.220 323.000 C 856.725 323.000 855.810 321.879 855.186 320.510 C 854.171 318.282 853.785 318.141 851.526 319.170 C 850.137 319.803 849.000 320.725 849.000 321.220 C 849.000 321.714 848.550 321.840 848.000 321.500 C 847.450 321.160 847.000 321.293 847.000 321.795 C 847.000 322.297 842.725 324.639 837.500 327.000 C 832.275 329.361 828.000 331.703 828.000 332.205 C 828.000 332.707 827.550 332.840 827.000 332.500 C 826.450 332.160 826.000 332.293 826.000 332.795 C 826.000 333.297 821.725 335.639 816.500 338.000 C 811.275 340.361 807.000 342.703 807.000 343.205 C 807.000 343.707 806.550 343.840 806.000 343.500 C 805.450 343.160 805.000 343.293 805.000 343.795 C 805.000 344.297 800.725 346.639 795.500 349.000 C 790.275 351.361 786.000 353.703 786.000 354.205 C 786.000 354.707 785.550 354.840 785.000 354.500 C 784.450 354.160 784.000 354.293 784.000 354.795 C 784.000 355.297 779.725 357.639 774.500 360.000 C 769.275 362.361 765.000 364.703 765.000 365.205 C 765.000 365.707 764.550 365.840 764.000 365.500 C 763.450 365.160 763.000 365.293 763.000 365.795 C 763.000 366.297 758.725 368.639 753.500 371.000 C 748.275 373.361 744.000 375.703 744.000 376.205 C 744.000 376.707 743.550 376.840 743.000 376.500 C 742.450 376.160 742.000 376.300 742.000 376.812 C 742.000 377.323 738.175 379.446 733.500 381.529 C 728.825 383.612 725.000 385.722 725.000 386.217 C 725.000 386.713 724.550 386.840 724.000 386.500 C 723.450 386.160 723.000 386.385 723.000 387.000 C 723.000 387.615 722.550 387.840 722.000 387.500 C 721.450 387.160 721.000 387.300 721.000 387.812 C 721.000 388.323 717.175 390.446 712.500 392.529 C 707.825 394.612 704.000 396.722 704.000 397.217 C 704.000 397.713 703.550 397.840 703.000 397.500 C 702.450 397.160 702.000 397.385 702.000 398.000 C 702.000 398.615 701.550 398.840 701.000 398.500 C 700.450 398.160 700.000 398.287 700.000 398.783 C 700.000 399.278 696.175 401.388 691.500 403.471 C 686.825 405.554 683.000 407.677 683.000 408.188 C 683.000 408.700 682.550 408.840 682.000 408.500 C 681.450 408.160 681.000 408.385 681.000 409.000 C 681.000 409.615 680.550 409.840 680.000 409.500 C 679.450 409.160 679.000 409.275 679.000 409.756 C 679.000 410.236 677.374 411.405 675.388 412.352 C 671.950 413.991 671.704 413.988 670.313 412.287 C 669.509 411.304 669.196 411.175 669.618 412.000 C 670.276 413.288 670.146 413.307 668.703 412.137 C 667.778 411.387 667.269 410.374 667.570 409.887 C 667.871 409.399 667.615 409.000 667.000 409.000 C 666.385 409.000 666.118 408.618 666.406 408.151 C 666.695 407.685 666.073 406.383 665.026 405.258 C 663.978 404.133 663.393 402.940 663.727 402.606 C 664.060 402.273 663.782 402.000 663.108 402.000 C 662.434 402.000 662.160 401.550 662.500 401.000 C 662.840 400.450 662.615 400.000 662.000 400.000 C 661.385 400.000 661.160 399.550 661.500 399.000 C 661.840 398.450 661.690 398.000 661.167 398.000 C 660.645 398.000 659.934 396.875 659.589 395.500 C 659.244 394.125 658.494 393.000 657.922 393.000 C 657.350 393.000 657.160 392.550 657.500 392.000 C 657.840 391.450 657.615 391.000 657.000 391.000 C 656.385 391.000 656.160 390.550 656.500 390.000 C 656.840 389.450 656.615 389.000 656.000 389.000 C 655.385 389.000 655.118 388.618 655.406 388.151 C 655.695 387.685 655.073 386.383 654.026 385.258 C 652.978 384.133 652.393 382.940 652.727 382.606 C 653.060 382.273 652.782 382.000 652.108 382.000 C 651.434 382.000 651.160 381.550 651.500 381.000 C 651.840 380.450 651.615 380.000 651.000 380.000 C 650.385 380.000 650.118 379.618 650.406 379.151 C 650.695 378.685 650.073 377.383 649.026 376.258 C 647.978 375.133 647.393 373.940 647.727 373.606 C 648.060 373.273 647.782 373.000 647.108 373.000 C 646.434 373.000 646.160 372.550 646.500 372.000 C 646.840 371.450 646.615 371.000 646.000 371.000 C 645.385 371.000 645.118 370.618 645.406 370.151 C 645.695 369.685 645.073 368.383 644.026 367.258 C 642.978 366.133 642.393 364.940 642.727 364.606 C 643.060 364.273 642.782 364.000 642.108 364.000 C 641.434 364.000 641.160 363.550 641.500 363.000 C 641.840 362.450 641.615 362.000 641.000 362.000 C 640.385 362.000 640.118 361.618 640.406 361.151 C 640.695 360.685 640.073 359.383 639.026 358.258 C 637.978 357.133 637.393 355.940 637.727 355.606 C 638.060 355.273 637.782 355.000 637.108 355.000 C 636.434 355.000 636.160 354.550 636.500 354.000 C 636.840 353.450 636.615 353.000 636.000 353.000 C 635.385 353.000 635.118 352.618 635.406 352.151 C 635.695 351.685 635.073 350.383 634.026 349.258 C 632.978 348.133 632.393 346.940 632.727 346.606 C 633.060 346.273 632.782 346.000 632.108 346.000 C 631.434 346.000 631.160 345.550 631.500 345.000 C 631.840 344.450 631.615 344.000 631.000 344.000 C 630.385 344.000 630.118 343.618 630.406 343.151 C 630.695 342.685 630.073 341.383 629.026 340.258 C 627.978 339.133 627.393 337.940 627.727 337.606 C 628.060 337.273 627.782 337.000 627.108 337.000 C 626.434 337.000 626.160 336.550 626.500 336.000 C 626.840 335.450 626.615 335.000 626.000 335.000 C 625.385 335.000 625.160 334.550 625.500 334.000 C 625.840 333.450 625.641 333.000 625.059 333.000 C 624.477 333.000 624.000 332.325 624.000 331.500 C 624.000 330.675 623.523 330.000 622.941 330.000 C 622.359 330.000 622.160 329.550 622.500 329.000 C 622.840 328.450 622.615 328.000 622.000 328.000 C 621.385 328.000 621.160 327.550 621.500 327.000 C 621.840 326.450 621.615 326.000 621.000 326.000 C 620.385 326.000 620.160 325.550 620.500 325.000 C 620.840 324.450 620.690 324.000 620.167 324.000 C 619.645 324.000 618.934 322.875 618.589 321.500 C 618.244 320.125 617.494 319.000 616.922 319.000 C 616.350 319.000 616.160 318.550 616.500 318.000 C 616.840 317.450 616.615 317.000 616.000 317.000 C 615.385 317.000 615.160 316.550 615.500 316.000 C 615.840 315.450 615.615 315.000 615.000 315.000 C 614.385 315.000 614.118 314.618 614.406 314.151 C 614.695 313.685 614.073 312.383 613.026 311.258 C 611.978 310.133 611.393 308.940 611.727 308.606 C 612.060 308.273 611.782 308.000 611.108 308.000 C 610.434 308.000 610.160 307.550 610.500 307.000 C 610.840 306.450 610.641 306.000 610.059 306.000 C 609.477 306.000 609.089 305.663 609.198 305.250 C 609.605 303.712 607.822 299.992 606.939 300.537 C 606.435 300.849 606.278 300.440 606.589 299.629 C 606.900 298.818 606.220 297.220 605.077 296.077 C 603.935 294.935 603.000 293.775 603.000 293.500 C 603.000 293.225 603.000 292.523 603.000 291.941 C 603.000 291.359 602.480 291.203 601.845 291.595 C 601.165 292.016 600.961 291.872 601.349 291.245 C 602.213 289.846 601.043 286.855 599.907 287.558 C 599.421 287.858 599.319 287.332 599.681 286.388 C 600.164 285.132 599.985 284.891 599.015 285.490 C 598.147 286.027 597.930 285.922 598.386 285.184 C 599.284 283.732 596.215 277.749 594.969 278.519 C 594.428 278.853 594.301 278.331 594.671 277.302 C 595.027 276.311 594.939 275.845 594.475 276.268 C 594.011 276.690 593.570 276.199 593.495 275.178 C 593.361 273.369 583.035 253.766 550.995 194.500 C 542.372 178.550 531.369 158.193 526.543 149.263 C 521.716 140.332 517.399 133.253 516.948 133.532 C 516.498 133.810 514.469 130.880 512.441 127.019 C 510.412 123.159 508.471 120.014 508.126 120.032 C 507.782 120.049 506.626 120.724 505.559 121.532 M 509.412 233.605 C 510.279 233.937 510.740 234.612 510.435 235.105 C 510.131 235.597 510.385 236.000 511.000 236.000 C 511.615 236.000 511.840 236.450 511.500 237.000 C 511.160 237.550 511.385 238.000 512.000 238.000 C 512.615 238.000 512.840 238.450 512.500 239.000 C 512.160 239.550 512.385 240.000 513.000 240.000 C 513.615 240.000 513.840 240.450 513.500 241.000 C 513.160 241.550 513.385 242.000 514.000 242.000 C 514.615 242.000 514.840 242.450 514.500 243.000 C 514.160 243.550 514.359 244.000 514.941 244.000 C 515.523 244.000 516.000 244.675 516.000 245.500 C 516.000 246.325 516.477 247.000 517.059 247.000 C 517.641 247.000 517.840 247.450 517.500 248.000 C 517.160 248.550 517.385 249.000 518.000 249.000 C 518.615 249.000 518.840 249.450 518.500 250.000 C 518.160 250.550 518.385 251.000 519.000 251.000 C 519.615 251.000 519.840 251.450 519.500 252.000 C 519.160 252.550 519.385 253.000 520.000 253.000 C 520.615 253.000 520.869 253.403 520.565 253.895 C 520.260 254.388 520.712 255.059 521.569 255.388 C 522.426 255.717 522.847 256.439 522.504 256.993 C 522.162 257.547 522.385 258.000 523.000 258.000 C 523.615 258.000 523.840 258.450 523.500 259.000 C 523.160 259.550 523.385 260.000 524.000 260.000 C 524.615 260.000 524.840 260.450 524.500 261.000 C 524.160 261.550 524.385 262.000 525.000 262.000 C 525.615 262.000 525.840 262.450 525.500 263.000 C 525.160 263.550 525.434 264.000 526.108 264.000 C 526.782 264.000 527.060 264.273 526.727 264.606 C 526.393 264.940 526.978 266.133 528.026 267.258 C 529.073 268.383 529.695 269.685 529.406 270.151 C 529.118 270.618 529.385 271.000 530.000 271.000 C 530.615 271.000 530.840 271.450 530.500 272.000 C 530.160 272.550 530.385 273.000 531.000 273.000 C 531.615 273.000 531.840 273.450 531.500 274.000 C 531.160 274.550 531.385 275.000 532.000 275.000 C 532.615 275.000 532.840 275.450 532.500 276.000 C 532.160 276.550 532.434 277.000 533.108 277.000 C 533.782 277.000 534.071 277.263 533.750 277.583 C 533.429 277.904 534.046 279.046 535.120 280.120 C 536.194 281.194 536.805 282.507 536.477 283.036 C 536.150 283.566 536.385 284.000 537.000 284.000 C 537.615 284.000 537.840 284.450 537.500 285.000 C 537.160 285.550 537.385 286.000 538.000 286.000 C 538.615 286.000 538.840 286.450 538.500 287.000 C 538.160 287.550 538.434 288.000 539.108 288.000 C 539.782 288.000 540.071 288.263 539.750 288.583 C 539.429 288.904 540.046 290.046 541.120 291.120 C 542.194 292.194 542.805 293.507 542.477 294.036 C 542.150 294.566 542.385 295.000 543.000 295.000 C 543.615 295.000 543.840 295.450 543.500 296.000 C 543.160 296.550 543.385 297.000 544.000 297.000 C 544.615 297.000 544.840 297.450 544.500 298.000 C 544.160 298.550 544.385 299.000 545.000 299.000 C 545.615 299.000 545.840 299.450 545.500 300.000 C 545.160 300.550 545.385 301.000 546.000 301.000 C 546.615 301.000 546.840 301.450 546.500 302.000 C 546.160 302.550 546.385 303.000 547.000 303.000 C 547.615 303.000 547.869 303.403 547.565 303.895 C 547.260 304.388 547.712 305.059 548.569 305.388 C 549.426 305.717 549.847 306.439 549.504 306.993 C 549.162 307.547 549.385 308.000 550.000 308.000 C 550.615 308.000 550.840 308.450 550.500 309.000 C 550.160 309.550 550.385 310.000 551.000 310.000 C 551.615 310.000 551.840 310.450 551.500 311.000 C 551.160 311.550 551.385 312.000 552.000 312.000 C 552.615 312.000 552.840 312.450 552.500 313.000 C 552.160 313.550 552.434 314.000 553.108 314.000 C 553.782 314.000 554.060 314.273 553.727 314.606 C 553.393 314.940 553.978 316.133 555.026 317.258 C 556.073 318.383 556.695 319.685 556.406 320.151 C 556.118 320.618 556.385 321.000 557.000 321.000 C 557.615 321.000 557.840 321.450 557.500 322.000 C 557.160 322.550 557.434 323.000 558.108 323.000 C 558.782 323.000 559.071 323.263 558.750 323.583 C 558.429 323.904 559.046 325.046 560.120 326.120 C 561.194 327.194 561.805 328.507 561.477 329.036 C 561.150 329.566 561.385 330.000 562.000 330.000 C 562.615 330.000 562.840 330.450 562.500 331.000 C 562.160 331.550 562.385 332.000 563.000 332.000 C 563.615 332.000 563.840 332.450 563.500 333.000 C 563.160 333.550 563.385 334.000 564.000 334.000 C 564.615 334.000 564.869 334.403 564.565 334.895 C 564.260 335.388 564.731 336.066 565.609 336.404 C 566.488 336.741 566.964 337.651 566.667 338.426 C 566.370 339.201 566.801 340.094 567.627 340.410 C 568.452 340.727 568.847 341.439 568.504 341.993 C 568.162 342.547 568.385 343.000 569.000 343.000 C 569.615 343.000 569.840 343.450 569.500 344.000 C 569.160 344.550 569.385 345.000 570.000 345.000 C 570.615 345.000 570.840 345.450 570.500 346.000 C 570.160 346.550 570.385 347.000 571.000 347.000 C 571.615 347.000 571.840 347.450 571.500 348.000 C 571.160 348.550 571.434 349.000 572.108 349.000 C 572.782 349.000 573.071 349.263 572.750 349.583 C 572.429 349.904 573.046 351.046 574.120 352.120 C 575.194 353.194 575.805 354.507 575.477 355.036 C 575.150 355.566 575.385 356.000 576.000 356.000 C 576.615 356.000 576.840 356.450 576.500 357.000 C 576.160 357.550 576.385 358.000 577.000 358.000 C 577.615 358.000 577.840 358.450 577.500 359.000 C 577.160 359.550 577.385 360.000 578.000 360.000 C 578.615 360.000 578.840 360.450 578.500 361.000 C 578.160 361.550 578.434 362.000 579.108 362.000 C 579.782 362.000 580.071 362.263 579.750 362.583 C 579.429 362.904 580.046 364.046 581.120 365.120 C 582.194 366.194 582.805 367.507 582.477 368.036 C 582.150 368.566 582.385 369.000 583.000 369.000 C 583.615 369.000 583.840 369.450 583.500 370.000 C 583.160 370.550 583.385 371.000 584.000 371.000 C 584.615 371.000 584.869 371.403 584.565 371.895 C 584.260 372.388 584.731 373.066 585.609 373.404 C 586.550 373.764 586.964 374.652 586.615 375.560 C 586.276 376.444 586.446 376.843 587.011 376.493 C 587.901 375.943 588.432 377.265 588.118 379.250 C 588.053 379.663 588.477 380.000 589.059 380.000 C 589.641 380.000 589.840 380.450 589.500 381.000 C 589.160 381.550 589.385 382.000 590.000 382.000 C 590.615 382.000 590.840 382.450 590.500 383.000 C 590.160 383.550 590.434 384.000 591.108 384.000 C 591.782 384.000 592.071 384.263 591.750 384.583 C 591.429 384.904 592.046 386.046 593.120 387.120 C 594.194 388.194 594.805 389.507 594.477 390.036 C 594.150 390.566 594.385 391.000 595.000 391.000 C 595.615 391.000 595.840 391.450 595.500 392.000 C 595.160 392.550 595.349 393.000 595.921 393.000 C 596.492 393.000 597.880 394.804 599.004 397.008 C 600.387 399.719 600.637 400.935 599.774 400.765 C 599.074 400.626 599.285 400.895 600.244 401.361 C 601.204 401.828 601.740 402.612 601.435 403.105 C 601.131 403.597 601.434 404.000 602.108 404.000 C 602.782 404.000 603.071 404.263 602.750 404.583 C 602.429 404.904 603.064 406.064 604.161 407.161 C 605.257 408.257 605.900 409.818 605.589 410.629 C 605.278 411.440 605.435 411.849 605.939 411.537 C 606.822 410.992 608.605 414.712 608.198 416.250 C 608.089 416.663 608.525 417.000 609.167 417.000 C 609.808 417.000 610.071 417.263 609.750 417.583 C 609.429 417.904 610.064 419.064 611.161 420.161 C 612.257 421.257 612.900 422.818 612.589 423.629 C 612.271 424.458 612.456 424.836 613.011 424.493 C 613.901 423.943 614.432 425.265 614.118 427.250 C 614.053 427.663 614.438 428.000 614.974 428.000 C 616.409 428.000 619.197 433.872 618.386 435.184 C 617.962 435.870 618.141 436.031 618.845 435.595 C 619.876 434.958 620.449 436.153 620.118 438.250 C 620.053 438.663 620.482 439.000 621.071 439.000 C 623.343 439.000 619.113 441.864 610.472 446.178 C 605.537 448.641 596.100 453.490 589.500 456.953 C 582.900 460.416 572.775 465.725 567.000 468.752 C 561.225 471.778 551.550 476.865 545.500 480.054 C 539.450 483.244 529.775 488.180 524.000 491.024 C 518.225 493.868 513.260 496.581 512.968 497.054 C 512.675 497.527 508.030 499.959 502.645 502.458 C 497.261 504.957 492.274 507.583 491.564 508.293 C 490.854 509.004 485.936 511.544 480.636 513.938 C 475.336 516.333 471.000 518.703 471.000 519.205 C 471.000 519.707 470.550 519.840 470.000 519.500 C 469.450 519.160 469.000 519.293 469.000 519.795 C 469.000 520.297 464.725 522.639 459.500 525.000 C 454.275 527.361 450.000 529.703 450.000 530.205 C 450.000 530.707 449.550 530.840 449.000 530.500 C 448.450 530.160 448.000 530.293 448.000 530.795 C 448.000 531.297 443.725 533.639 438.500 536.000 C 433.275 538.361 429.000 540.703 429.000 541.205 C 429.000 541.707 428.550 541.840 428.000 541.500 C 427.450 541.160 427.000 541.293 427.000 541.795 C 427.000 542.297 422.725 544.639 417.500 547.000 C 412.275 549.361 408.000 551.613 408.000 552.006 C 408.000 552.399 403.275 554.882 397.500 557.524 C 391.725 560.165 387.000 562.630 387.000 563.000 C 387.000 563.370 382.275 565.835 376.500 568.476 C 370.725 571.118 366.000 573.593 366.000 573.976 C 366.000 574.360 361.275 576.835 355.500 579.476 C 349.725 582.118 345.000 584.601 345.000 584.994 C 345.000 585.387 340.725 587.639 335.500 590.000 C 330.275 592.361 326.000 594.703 326.000 595.205 C 326.000 595.707 325.550 595.840 325.000 595.500 C 324.450 595.160 324.000 595.293 324.000 595.795 C 324.000 596.297 319.725 598.639 314.500 601.000 C 309.275 603.361 305.000 605.703 305.000 606.205 C 305.000 606.707 304.550 606.840 304.000 606.500 C 303.450 606.160 303.000 606.293 303.000 606.795 C 303.000 607.297 298.725 609.639 293.500 612.000 C 288.275 614.361 284.000 616.703 284.000 617.205 C 284.000 617.707 283.552 617.841 283.004 617.502 C 282.375 617.114 282.560 615.818 283.504 613.993 C 285.300 610.519 285.388 609.642 283.845 610.595 C 283.124 611.041 282.963 610.869 283.415 610.138 C 283.813 609.494 284.538 609.214 285.027 609.516 C 286.233 610.262 289.259 604.227 288.386 602.816 C 287.930 602.078 288.147 601.973 289.015 602.510 C 289.985 603.109 290.164 602.868 289.681 601.612 C 289.306 600.635 289.430 600.148 289.969 600.481 C 291.084 601.170 294.453 595.120 293.490 594.157 C 293.129 593.796 293.433 593.499 294.167 593.497 C 294.900 593.496 295.561 592.821 295.635 591.997 C 295.709 591.174 295.890 590.500 296.037 590.500 C 296.184 590.500 296.357 590.050 296.421 589.500 C 296.486 588.950 296.980 588.275 297.519 588.000 C 298.059 587.725 298.561 587.050 298.635 586.500 C 298.709 585.950 298.890 585.500 299.037 585.500 C 299.184 585.500 299.409 585.050 299.537 584.500 C 299.665 583.950 299.890 583.500 300.037 583.500 C 300.184 583.500 300.357 583.050 300.421 582.500 C 300.486 581.950 300.980 581.275 301.519 581.000 C 302.059 580.725 302.561 580.050 302.635 579.500 C 302.709 578.950 302.890 578.500 303.037 578.500 C 303.184 578.500 303.357 578.050 303.421 577.500 C 303.486 576.950 303.980 576.275 304.519 576.000 C 305.059 575.725 305.561 575.050 305.635 574.500 C 305.709 573.950 305.890 573.500 306.037 573.500 C 306.184 573.500 306.409 573.050 306.537 572.500 C 306.665 571.950 306.821 571.713 306.885 571.973 C 306.948 572.232 307.701 571.444 308.558 570.221 C 309.415 568.997 309.795 567.478 309.403 566.844 C 308.979 566.158 309.129 565.962 309.773 566.360 C 310.716 566.943 312.304 564.160 312.451 561.667 C 312.478 561.208 312.909 561.208 313.409 561.667 C 313.943 562.156 314.051 561.756 313.671 560.698 C 313.284 559.624 313.422 559.143 314.011 559.507 C 314.901 560.057 315.432 558.735 315.118 556.750 C 315.053 556.338 315.525 556.000 316.167 556.000 C 316.808 556.000 317.060 555.727 316.727 555.394 C 316.393 555.060 316.978 553.867 318.026 552.742 C 319.073 551.617 319.695 550.315 319.406 549.849 C 319.118 549.382 319.328 549.000 319.874 549.000 C 320.419 549.000 321.180 548.008 321.565 546.797 C 321.949 545.585 322.879 543.978 323.632 543.225 C 324.384 542.473 325.000 541.214 325.000 540.429 C 325.000 539.643 325.477 539.000 326.059 539.000 C 326.641 539.000 326.840 538.550 326.500 538.000 C 326.160 537.450 326.359 537.000 326.941 537.000 C 327.523 537.000 328.000 536.394 328.000 535.653 C 328.000 534.912 328.900 533.268 330.000 532.000 C 331.100 530.732 332.000 529.088 332.000 528.347 C 332.000 527.606 332.441 527.000 332.981 527.000 C 333.520 527.000 334.244 525.875 334.589 524.500 C 334.934 523.125 335.645 522.000 336.167 522.000 C 336.690 522.000 336.840 521.550 336.500 521.000 C 336.160 520.450 336.359 520.000 336.941 520.000 C 337.523 520.000 338.000 519.325 338.000 518.500 C 338.000 517.675 338.477 517.000 339.059 517.000 C 339.641 517.000 339.840 516.550 339.500 516.000 C 339.160 515.450 339.328 515.000 339.874 515.000 C 340.419 515.000 341.180 514.008 341.565 512.797 C 341.949 511.585 342.879 509.978 343.632 509.225 C 344.384 508.473 345.000 507.214 345.000 506.429 C 345.000 505.643 345.441 505.000 345.981 505.000 C 346.520 505.000 347.244 503.875 347.589 502.500 C 347.934 501.125 348.645 500.000 349.167 500.000 C 349.690 500.000 349.840 499.550 349.500 499.000 C 349.160 498.450 349.359 498.000 349.941 498.000 C 350.523 498.000 351.000 497.394 351.000 496.653 C 351.000 495.912 351.900 494.268 353.000 493.000 C 354.100 491.732 355.000 490.088 355.000 489.347 C 355.000 488.606 355.420 488.000 355.933 488.000 C 356.446 488.000 357.180 487.008 357.565 485.797 C 357.949 484.585 358.879 482.978 359.632 482.225 C 360.384 481.473 361.000 480.214 361.000 479.429 C 361.000 478.643 361.415 478.000 361.922 478.000 C 362.430 478.000 363.365 476.425 364.000 474.500 C 364.635 472.575 365.540 471.000 366.010 471.000 C 366.480 471.000 367.180 470.008 367.565 468.797 C 367.949 467.585 368.879 465.978 369.632 465.225 C 370.384 464.473 371.000 463.214 371.000 462.429 C 371.000 461.643 371.441 461.000 371.981 461.000 C 372.520 461.000 373.244 459.875 373.589 458.500 C 373.934 457.125 374.583 456.000 375.031 456.000 C 375.479 456.000 376.365 454.425 377.000 452.500 C 377.635 450.575 378.540 449.000 379.010 449.000 C 379.480 449.000 380.180 448.008 380.565 446.797 C 380.949 445.585 381.879 443.978 382.632 443.225 C 383.384 442.473 384.000 441.214 384.000 440.429 C 384.000 439.643 384.441 439.000 384.981 439.000 C 385.520 439.000 386.244 437.875 386.589 436.500 C 386.934 435.125 387.574 434.000 388.011 434.000 C 388.447 434.000 389.300 432.763 389.905 431.250 C 390.511 429.738 391.900 427.150 392.992 425.500 C 394.085 423.850 395.541 421.375 396.228 420.000 C 396.915 418.625 398.044 416.905 398.738 416.179 C 399.432 415.452 400.000 414.214 400.000 413.429 C 400.000 412.643 400.406 412.000 400.902 412.000 C 401.398 412.000 402.300 410.763 402.905 409.250 C 403.511 407.738 404.900 405.150 405.992 403.500 C 407.085 401.850 408.541 399.375 409.228 398.000 C 409.915 396.625 411.044 394.905 411.738 394.179 C 412.432 393.452 413.000 392.214 413.000 391.429 C 413.000 390.643 413.420 390.000 413.933 390.000 C 414.446 390.000 415.180 389.008 415.565 387.797 C 415.949 386.585 416.879 384.978 417.632 384.225 C 418.384 383.473 419.000 382.214 419.000 381.429 C 419.000 380.643 419.441 380.000 419.981 380.000 C 420.520 380.000 421.244 378.875 421.589 377.500 C 421.934 376.125 422.563 375.000 422.987 375.000 C 423.411 375.000 424.355 373.538 425.086 371.750 C 425.817 369.963 426.997 367.905 427.708 367.179 C 428.418 366.452 429.000 365.214 429.000 364.429 C 429.000 363.643 429.441 363.000 429.981 363.000 C 430.520 363.000 431.244 361.875 431.589 360.500 C 431.934 359.125 432.588 358.000 433.041 358.000 C 433.494 358.000 434.180 357.008 434.565 355.797 C 434.949 354.585 435.879 352.978 436.632 352.225 C 437.384 351.473 438.000 350.214 438.000 349.429 C 438.000 348.643 438.415 348.000 438.922 348.000 C 439.430 348.000 440.365 346.425 441.000 344.500 C 441.635 342.575 442.562 341.000 443.059 341.000 C 443.555 341.000 444.244 339.875 444.589 338.500 C 444.934 337.125 445.588 336.000 446.041 336.000 C 446.494 336.000 447.180 335.008 447.565 333.797 C 447.949 332.585 448.879 330.978 449.632 330.225 C 450.384 329.473 451.000 328.214 451.000 327.429 C 451.000 326.643 451.420 326.000 451.933 326.000 C 452.446 326.000 453.180 325.008 453.565 323.797 C 453.949 322.585 454.879 320.978 455.632 320.225 C 456.384 319.473 457.000 318.214 457.000 317.429 C 457.000 316.643 457.525 316.000 458.167 316.000 C 458.808 316.000 459.070 315.737 458.749 315.415 C 458.427 315.094 458.806 314.082 459.590 313.165 C 460.375 312.249 460.900 311.264 460.758 310.977 C 460.616 310.689 461.497 309.383 462.715 308.075 C 463.934 306.767 464.695 305.315 464.406 304.849 C 464.118 304.382 464.350 304.000 464.922 304.000 C 465.494 304.000 466.244 302.875 466.589 301.500 C 466.934 300.125 467.645 299.000 468.167 299.000 C 468.690 299.000 468.840 298.550 468.500 298.000 C 468.160 297.450 468.359 297.000 468.941 297.000 C 469.523 297.000 470.000 296.325 470.000 295.500 C 470.000 294.675 470.477 294.000 471.059 294.000 C 471.641 294.000 471.840 293.550 471.500 293.000 C 471.160 292.450 471.359 292.000 471.941 292.000 C 472.523 292.000 473.000 291.325 473.000 290.500 C 473.000 289.675 473.477 289.000 474.059 289.000 C 474.641 289.000 474.840 288.550 474.500 288.000 C 474.160 287.450 474.359 287.000 474.941 287.000 C 475.523 287.000 476.000 286.325 476.000 285.500 C 476.000 284.675 476.525 284.000 477.167 284.000 C 477.808 284.000 478.070 283.737 477.749 283.415 C 477.427 283.094 477.915 281.954 478.832 280.883 C 479.749 279.812 480.488 278.612 480.474 278.218 C 480.459 277.823 481.134 276.698 481.974 275.718 C 482.813 274.737 483.275 273.827 483.000 273.694 C 482.725 273.562 483.497 272.383 484.715 271.075 C 485.934 269.767 486.695 268.315 486.406 267.849 C 486.118 267.382 486.385 267.000 487.000 267.000 C 487.615 267.000 487.840 266.550 487.500 266.000 C 487.160 265.450 487.359 265.000 487.941 265.000 C 488.523 265.000 489.000 264.325 489.000 263.500 C 489.000 262.675 489.525 262.000 490.167 262.000 C 490.808 262.000 491.060 261.727 490.727 261.394 C 490.393 261.060 490.978 259.867 492.026 258.742 C 493.073 257.617 493.695 256.315 493.406 255.849 C 493.118 255.382 493.359 255.000 493.941 255.000 C 494.523 255.000 495.000 254.325 495.000 253.500 C 495.000 252.675 495.477 252.000 496.059 252.000 C 496.641 252.000 496.840 251.550 496.500 251.000 C 496.160 250.450 496.385 250.000 497.000 250.000 C 497.615 250.000 497.869 249.597 497.565 249.105 C 497.260 248.612 497.712 247.941 498.569 247.612 C 499.426 247.283 499.847 246.561 499.504 246.007 C 499.162 245.453 499.385 245.000 500.000 245.000 C 500.615 245.000 500.869 244.597 500.565 244.105 C 500.260 243.612 500.712 242.941 501.569 242.612 C 502.426 242.283 502.847 241.561 502.504 241.007 C 502.162 240.453 502.385 240.000 503.000 240.000 C 503.615 240.000 503.869 239.597 503.565 239.105 C 503.260 238.612 503.712 237.941 504.569 237.612 C 505.426 237.283 505.847 236.561 505.504 236.007 C 505.162 235.453 505.385 235.000 506.000 235.000 C 506.615 235.000 506.840 234.550 506.500 234.000 C 505.803 232.873 507.060 232.702 509.412 233.605 M 536.364 169.500 C 541.679 179.400 549.283 194.097 553.263 202.161 C 558.342 212.450 555.707 208.126 544.425 187.661 C 530.211 161.873 516.964 136.009 517.019 134.149 C 517.030 133.792 519.213 137.550 521.870 142.500 C 524.528 147.450 531.050 159.600 536.364 169.500 "/></g>
<g fill="#2A2A2AFF">
<path d="M 484.515 271.771 C 471.873 293.072 451.227 327.825 438.636 349.000 C 391.910 427.579 324.483 541.896 317.721 554.000 C 313.881 560.875 305.913 574.825 300.016 585.000 C 282.537 615.155 281.334 617.468 283.564 616.622 C 284.629 616.219 339.050 587.845 404.500 553.571 C 469.950 519.296 544.875 480.112 571.000 466.495 C 597.125 452.878 619.002 441.233 619.615 440.618 C 620.436 439.795 609.280 418.383 577.353 359.500 C 553.496 315.500 528.316 269.038 521.398 256.250 C 514.480 243.463 508.523 233.009 508.160 233.021 C 507.797 233.033 497.157 250.470 484.515 271.771 "/></g>
<g fill="#C8C8C8FF">
<path d="M 465.500 38.005 C 421.612 41.642 382.861 50.153 341.000 65.351 C 329.233 69.623 327.190 70.421 321.247 73.064 C 318.636 74.226 313.350 76.575 309.500 78.285 C 289.317 87.251 269.314 98.449 246.307 113.661 C 158.074 171.999 92.446 258.145 59.941 358.291 C 54.607 374.726 54.547 374.933 51.532 387.500 C 47.268 405.274 47.103 406.021 45.030 417.000 C 43.168 426.854 42.439 431.911 39.841 453.000 C 38.223 466.130 37.586 526.528 38.924 540.000 C 40.951 560.420 43.478 578.146 46.550 593.500 C 48.192 601.706 53.643 624.171 55.042 628.500 C 55.576 630.150 57.167 635.325 58.579 640.000 C 66.399 665.896 82.837 703.793 98.052 731.000 C 106.789 746.623 137.760 791.498 141.328 793.703 C 141.956 794.091 140.834 792.179 138.835 789.454 C 97.375 732.954 74.289 687.824 57.525 630.500 C 33.586 548.646 33.061 461.534 55.993 376.500 C 76.297 301.215 121.052 225.848 178.630 169.982 C 255.572 95.328 350.613 51.275 457.890 40.540 C 475.975 38.730 521.982 38.462 540.328 40.060 C 589.677 44.357 638.309 56.374 682.500 75.192 C 741.845 100.463 796.637 138.883 840.429 185.930 C 903.136 253.300 943.783 336.712 958.389 428.000 C 962.790 455.507 963.415 464.758 963.385 502.000 C 963.355 539.668 962.593 549.796 957.482 580.500 C 955.822 590.475 955.489 592.026 950.393 613.500 C 933.787 683.486 894.923 756.640 845.999 810.000 C 840.705 815.775 835.079 821.974 833.498 823.776 C 828.100 829.927 802.524 852.862 788.977 863.700 C 728.099 912.402 652.716 945.605 575.000 957.948 C 548.582 962.144 532.597 963.314 502.000 963.292 C 472.634 963.270 457.115 962.192 431.568 958.398 C 346.137 945.709 263.994 907.631 197.000 849.660 C 194.525 847.519 182.181 835.581 169.569 823.133 C 156.957 810.685 149.982 804.293 154.069 808.930 C 214.056 876.980 298.726 928.878 385.000 950.478 C 400.440 954.344 402.020 954.720 407.500 955.835 C 474.452 969.461 544.651 968.288 611.000 952.433 C 674.181 937.334 740.180 905.011 790.534 864.505 C 820.642 840.286 850.106 810.161 871.718 781.500 C 905.551 736.633 932.859 682.742 946.969 633.000 C 947.671 630.525 948.867 626.466 949.627 623.979 C 950.387 621.492 951.714 616.317 952.577 612.479 C 953.440 608.641 954.562 603.700 955.071 601.500 C 959.076 584.187 962.962 557.125 965.000 532.343 C 967.820 498.057 964.283 444.253 956.957 410.000 C 956.310 406.975 955.425 402.700 954.989 400.500 C 953.845 394.722 949.391 377.261 947.719 372.000 C 946.932 369.525 945.716 365.475 945.017 363.000 C 942.755 354.995 930.538 321.724 929.044 319.500 C 928.674 318.950 927.068 315.350 925.476 311.500 C 918.782 295.322 903.108 266.812 889.464 246.000 C 834.264 161.798 750.689 96.360 656.000 63.201 C 642.054 58.318 616.830 50.802 608.500 49.048 C 591.710 45.514 577.802 42.961 568.000 41.612 C 561.675 40.742 553.125 39.550 549.000 38.963 C 539.463 37.606 478.721 36.909 465.500 38.005 "/></g>
<g fill="#399433FF">
<path d="M 747.000 556.800 C 747.000 557.240 747.388 558.028 747.862 558.550 C 748.773 559.555 749.935 561.680 767.163 593.849 C 773.157 605.041 779.689 617.191 781.680 620.849 C 794.919 645.178 802.000 658.390 802.000 658.762 C 802.000 658.998 802.829 660.386 803.843 661.846 C 804.857 663.306 807.739 668.325 810.249 673.000 C 812.758 677.675 816.429 684.356 818.406 687.846 C 820.382 691.336 822.000 694.332 822.000 694.502 C 822.000 694.673 824.250 698.635 827.000 703.307 C 829.750 707.980 831.998 712.184 831.996 712.651 C 831.993 713.118 820.181 713.592 805.746 713.703 C 791.311 713.815 780.305 713.578 781.289 713.177 C 782.901 712.519 782.777 712.111 780.039 709.043 C 778.367 707.171 777.000 705.271 777.000 704.820 C 777.000 703.226 780.579 704.027 782.268 706.000 C 784.260 708.326 786.473 708.674 785.651 706.532 C 784.705 704.068 787.014 703.665 789.374 705.881 C 791.469 707.849 791.699 707.872 793.300 706.272 C 794.366 705.205 795.000 705.024 795.000 705.786 C 795.000 708.060 801.097 706.371 803.250 703.500 C 803.726 702.865 804.319 702.995 804.875 703.857 C 805.401 704.673 806.550 704.960 807.757 704.577 C 809.078 704.158 809.964 704.463 810.350 705.470 C 810.965 707.073 814.000 707.629 814.000 706.139 C 814.000 705.665 815.072 705.482 816.383 705.733 C 820.030 706.430 820.335 704.491 817.131 700.982 C 815.380 699.065 814.424 697.093 814.712 695.992 C 815.016 694.833 814.418 693.759 813.066 693.035 C 811.899 692.411 811.208 691.473 811.530 690.952 C 811.852 690.430 811.415 689.003 810.558 687.779 C 809.701 686.556 809.000 684.600 809.000 683.432 C 809.000 682.265 808.084 680.481 806.965 679.468 C 805.845 678.455 805.163 677.018 805.448 676.275 C 805.733 675.532 805.329 674.680 804.551 674.381 C 803.772 674.082 802.368 671.399 801.431 668.419 C 800.493 665.439 799.338 663.000 798.863 663.000 C 798.388 663.000 798.000 662.347 798.000 661.550 C 798.000 660.752 797.373 659.740 796.606 659.300 C 795.840 658.860 793.884 656.250 792.261 653.500 C 790.103 649.845 788.797 648.592 787.405 648.842 C 786.357 649.029 785.350 649.592 785.167 650.092 C 784.713 651.327 782.000 651.249 782.000 650.000 C 782.000 649.450 782.675 649.000 783.500 649.000 C 786.175 649.000 785.356 643.463 782.393 641.522 C 780.607 640.351 780.110 639.490 780.815 638.785 C 782.407 637.193 781.045 635.000 778.464 635.000 C 776.508 635.000 775.888 635.873 774.534 640.532 C 773.123 645.385 772.554 646.139 769.908 646.668 C 767.827 647.085 767.061 647.718 767.442 648.708 C 767.745 649.498 767.509 651.050 766.917 652.155 C 765.891 654.072 765.751 654.084 763.920 652.428 C 762.111 650.790 762.000 650.789 762.000 652.411 C 762.000 654.923 763.947 658.151 765.050 657.469 C 765.606 657.126 766.000 659.155 766.000 662.359 C 766.000 665.372 766.301 668.622 766.670 669.582 C 767.127 670.773 766.968 671.098 766.170 670.605 C 765.526 670.207 765.000 668.158 765.000 666.050 C 765.000 662.416 764.820 662.198 761.500 661.810 C 758.653 661.478 758.000 661.735 758.000 663.189 C 758.000 664.423 758.663 664.903 760.140 664.738 C 761.317 664.607 762.479 665.063 762.723 665.750 C 762.967 666.438 762.659 667.000 762.038 667.000 C 761.417 667.000 759.784 668.125 758.409 669.500 C 755.760 672.149 756.199 672.529 761.500 672.179 C 762.600 672.106 764.625 672.926 766.000 674.001 C 768.042 675.598 768.177 675.960 766.736 675.978 C 765.766 675.990 763.966 676.563 762.736 677.250 C 761.506 677.938 760.389 678.536 760.253 678.580 C 760.118 678.624 760.705 681.010 761.557 683.882 C 762.410 686.754 763.032 689.868 762.939 690.802 C 762.846 691.736 762.822 692.355 762.885 692.179 C 763.242 691.181 766.147 695.304 766.274 696.990 C 766.357 698.095 766.780 699.000 767.213 699.000 C 767.646 699.000 768.000 699.465 768.000 700.034 C 768.000 702.120 776.562 713.826 778.500 714.390 C 781.879 715.374 832.835 715.075 833.458 714.068 C 834.013 713.170 828.131 701.847 815.851 680.175 C 812.633 674.496 810.000 669.672 810.000 669.454 C 810.000 669.236 807.975 665.632 805.500 661.446 C 803.025 657.260 801.000 653.709 801.000 653.556 C 801.000 653.285 787.869 629.099 782.782 620.000 C 780.177 615.340 758.670 576.001 751.757 563.250 C 748.027 556.370 747.000 554.978 747.000 556.800 "/></g>
<g fill="#399433FF">
<path d="M 505.900 120.717 C 504.620 122.347 504.653 122.380 506.281 121.102 C 508.665 119.230 508.935 119.632 519.676 141.000 C 524.514 150.625 535.678 171.610 544.486 187.634 C 558.555 213.229 559.407 214.578 551.500 198.736 C 543.354 182.416 528.344 154.106 514.556 129.060 C 511.698 123.868 508.896 119.465 508.330 119.277 C 507.764 119.088 506.670 119.736 505.900 120.717 "/></g>
<g fill="#399433FF">
<path d="M 712.135 604.500 C 712.911 606.519 721.997 623.855 728.901 636.493 C 732.806 643.639 736.000 650.276 736.000 651.243 C 736.000 652.209 736.450 653.000 737.000 653.000 C 738.365 653.000 738.264 651.736 736.410 645.688 C 734.418 639.184 733.160 636.549 730.883 634.105 C 728.729 631.793 722.553 621.801 717.440 612.357 C 714.136 606.253 711.053 601.687 712.135 604.500 "/></g>
<g fill="#41B839FF">
<path d="M 833.691 713.750 C 833.092 714.675 827.176 715.062 810.941 715.240 L 789.000 715.479 811.750 715.490 C 831.310 715.499 834.500 715.290 834.500 714.000 C 834.500 712.873 834.299 712.811 833.691 713.750 "/></g>
<g fill="#399433FF">
<path d="M 770.250 635.662 C 769.563 635.940 769.000 637.179 769.000 638.417 C 769.000 639.654 768.688 640.978 768.308 641.359 C 767.927 641.740 767.487 642.893 767.330 643.921 C 767.077 645.575 767.339 645.659 769.590 644.645 C 771.751 643.673 772.060 643.008 771.631 640.250 C 771.259 637.857 771.505 637.000 772.563 637.000 C 773.353 637.000 774.000 636.550 774.000 636.000 C 774.000 634.953 772.372 634.806 770.250 635.662 "/></g>
</svg>
